<mxfile host="app.diagrams.net" modified="2022-03-03T06:46:48.830Z" agent="5.0 (Windows NT 10.0) AppleWebKit/537.36 (KHTML, like Gecko) Chrome/96.0.4664.174 YaBrowser/22.1.4.840 Yowser/2.5 Safari/537.36" etag="gpDvJWJpbkRmTlc7dtOz" version="16.6.5" type="github">
  <diagram id="4U_yPtq689ggoy2j4PG2" name="Page-1">
    <mxGraphModel dx="1182" dy="735" grid="1" gridSize="10" guides="1" tooltips="1" connect="1" arrows="1" fold="1" page="1" pageScale="1" pageWidth="827" pageHeight="1169" math="0" shadow="0">
      <root>
        <mxCell id="0" />
        <mxCell id="1" parent="0" />
        <mxCell id="OG-ENs6HDF6D8M-Unit6-3" value="" style="edgeStyle=orthogonalEdgeStyle;rounded=0;orthogonalLoop=1;jettySize=auto;html=1;" edge="1" parent="1" source="OG-ENs6HDF6D8M-Unit6-1" target="OG-ENs6HDF6D8M-Unit6-2">
          <mxGeometry relative="1" as="geometry">
            <Array as="points">
              <mxPoint x="200" y="250" />
              <mxPoint x="200" y="250" />
            </Array>
          </mxGeometry>
        </mxCell>
        <mxCell id="OG-ENs6HDF6D8M-Unit6-1" value="Список стажеров в 1C" style="shape=hexagon;perimeter=hexagonPerimeter2;whiteSpace=wrap;html=1;fixedSize=1;fillColor=#f8cecc;strokeColor=#b85450;" vertex="1" parent="1">
          <mxGeometry x="50" y="220" width="120" height="80" as="geometry" />
        </mxCell>
        <mxCell id="OG-ENs6HDF6D8M-Unit6-5" value="" style="edgeStyle=orthogonalEdgeStyle;rounded=0;orthogonalLoop=1;jettySize=auto;html=1;" edge="1" parent="1" source="OG-ENs6HDF6D8M-Unit6-2" target="OG-ENs6HDF6D8M-Unit6-4">
          <mxGeometry relative="1" as="geometry" />
        </mxCell>
        <mxCell id="OG-ENs6HDF6D8M-Unit6-2" value="Х" style="ellipse;whiteSpace=wrap;html=1;" vertex="1" parent="1">
          <mxGeometry x="230" y="240" width="40" height="40" as="geometry" />
        </mxCell>
        <mxCell id="OG-ENs6HDF6D8M-Unit6-10" value="" style="edgeStyle=orthogonalEdgeStyle;rounded=0;orthogonalLoop=1;jettySize=auto;html=1;" edge="1" parent="1" source="OG-ENs6HDF6D8M-Unit6-4" target="OG-ENs6HDF6D8M-Unit6-9">
          <mxGeometry relative="1" as="geometry" />
        </mxCell>
        <mxCell id="OG-ENs6HDF6D8M-Unit6-4" value="1. Подготовиться к обучению" style="whiteSpace=wrap;html=1;fillColor=#d5e8d4;strokeColor=#82b366;" vertex="1" parent="1">
          <mxGeometry x="310" y="230" width="120" height="60" as="geometry" />
        </mxCell>
        <mxCell id="OG-ENs6HDF6D8M-Unit6-8" value="" style="edgeStyle=orthogonalEdgeStyle;rounded=0;orthogonalLoop=1;jettySize=auto;html=1;" edge="1" parent="1" source="OG-ENs6HDF6D8M-Unit6-6" target="OG-ENs6HDF6D8M-Unit6-4">
          <mxGeometry relative="1" as="geometry" />
        </mxCell>
        <mxCell id="OG-ENs6HDF6D8M-Unit6-6" value="Направление на обучение" style="shape=document;whiteSpace=wrap;html=1;boundedLbl=1;fillColor=#f5f5f5;fontColor=#333333;strokeColor=#666666;" vertex="1" parent="1">
          <mxGeometry x="310" y="30" width="120" height="60" as="geometry" />
        </mxCell>
        <mxCell id="OG-ENs6HDF6D8M-Unit6-12" value="" style="edgeStyle=orthogonalEdgeStyle;rounded=0;orthogonalLoop=1;jettySize=auto;html=1;" edge="1" parent="1" source="OG-ENs6HDF6D8M-Unit6-9" target="OG-ENs6HDF6D8M-Unit6-11">
          <mxGeometry relative="1" as="geometry" />
        </mxCell>
        <mxCell id="OG-ENs6HDF6D8M-Unit6-9" value="Список стажеров" style="shape=hexagon;perimeter=hexagonPerimeter2;whiteSpace=wrap;html=1;fixedSize=1;fillColor=#f8cecc;strokeColor=#b85450;" vertex="1" parent="1">
          <mxGeometry x="480" y="220" width="120" height="80" as="geometry" />
        </mxCell>
        <mxCell id="OG-ENs6HDF6D8M-Unit6-16" value="" style="edgeStyle=orthogonalEdgeStyle;rounded=0;orthogonalLoop=1;jettySize=auto;html=1;" edge="1" parent="1" source="OG-ENs6HDF6D8M-Unit6-11" target="OG-ENs6HDF6D8M-Unit6-15">
          <mxGeometry relative="1" as="geometry" />
        </mxCell>
        <mxCell id="OG-ENs6HDF6D8M-Unit6-11" value="2. Проверить группу обучения" style="whiteSpace=wrap;html=1;fillColor=#d5e8d4;strokeColor=#82b366;" vertex="1" parent="1">
          <mxGeometry x="650" y="230" width="120" height="60" as="geometry" />
        </mxCell>
        <mxCell id="OG-ENs6HDF6D8M-Unit6-14" value="" style="edgeStyle=orthogonalEdgeStyle;rounded=0;orthogonalLoop=1;jettySize=auto;html=1;" edge="1" parent="1" source="OG-ENs6HDF6D8M-Unit6-13" target="OG-ENs6HDF6D8M-Unit6-11">
          <mxGeometry relative="1" as="geometry" />
        </mxCell>
        <mxCell id="OG-ENs6HDF6D8M-Unit6-13" value="Правила внутреннего распорядка" style="shape=document;whiteSpace=wrap;html=1;boundedLbl=1;fillColor=#f5f5f5;fontColor=#333333;strokeColor=#666666;" vertex="1" parent="1">
          <mxGeometry x="650" y="30" width="120" height="60" as="geometry" />
        </mxCell>
        <mxCell id="OG-ENs6HDF6D8M-Unit6-21" value="" style="edgeStyle=orthogonalEdgeStyle;rounded=0;orthogonalLoop=1;jettySize=auto;html=1;entryX=0;entryY=0.5;entryDx=0;entryDy=0;" edge="1" parent="1" source="OG-ENs6HDF6D8M-Unit6-15" target="OG-ENs6HDF6D8M-Unit6-17">
          <mxGeometry relative="1" as="geometry">
            <mxPoint x="907" y="260" as="targetPoint" />
          </mxGeometry>
        </mxCell>
        <mxCell id="OG-ENs6HDF6D8M-Unit6-23" value="" style="edgeStyle=orthogonalEdgeStyle;rounded=0;orthogonalLoop=1;jettySize=auto;html=1;entryX=0;entryY=0.5;entryDx=0;entryDy=0;" edge="1" parent="1" source="OG-ENs6HDF6D8M-Unit6-15" target="OG-ENs6HDF6D8M-Unit6-19">
          <mxGeometry relative="1" as="geometry">
            <mxPoint x="907" y="260" as="targetPoint" />
          </mxGeometry>
        </mxCell>
        <mxCell id="OG-ENs6HDF6D8M-Unit6-25" value="" style="edgeStyle=orthogonalEdgeStyle;rounded=0;orthogonalLoop=1;jettySize=auto;html=1;entryX=0;entryY=0.5;entryDx=0;entryDy=0;" edge="1" parent="1" source="OG-ENs6HDF6D8M-Unit6-15" target="OG-ENs6HDF6D8M-Unit6-18">
          <mxGeometry relative="1" as="geometry">
            <mxPoint x="907" y="260" as="targetPoint" />
          </mxGeometry>
        </mxCell>
        <mxCell id="OG-ENs6HDF6D8M-Unit6-15" value="Х" style="ellipse;whiteSpace=wrap;html=1;" vertex="1" parent="1">
          <mxGeometry x="827" y="240" width="40" height="40" as="geometry" />
        </mxCell>
        <mxCell id="OG-ENs6HDF6D8M-Unit6-27" value="" style="edgeStyle=orthogonalEdgeStyle;rounded=0;orthogonalLoop=1;jettySize=auto;html=1;" edge="1" parent="1" source="OG-ENs6HDF6D8M-Unit6-17" target="OG-ENs6HDF6D8M-Unit6-26">
          <mxGeometry relative="1" as="geometry" />
        </mxCell>
        <mxCell id="OG-ENs6HDF6D8M-Unit6-17" value="Явка ЛП и СП" style="shape=hexagon;perimeter=hexagonPerimeter2;whiteSpace=wrap;html=1;fixedSize=1;fillColor=#f8cecc;strokeColor=#b85450;" vertex="1" parent="1">
          <mxGeometry x="930" y="140" width="120" height="60" as="geometry" />
        </mxCell>
        <mxCell id="OG-ENs6HDF6D8M-Unit6-29" value="" style="edgeStyle=orthogonalEdgeStyle;rounded=0;orthogonalLoop=1;jettySize=auto;html=1;" edge="1" parent="1" source="OG-ENs6HDF6D8M-Unit6-18" target="OG-ENs6HDF6D8M-Unit6-28">
          <mxGeometry relative="1" as="geometry" />
        </mxCell>
        <mxCell id="OG-ENs6HDF6D8M-Unit6-18" value="Нет задачи в 1C" style="shape=hexagon;perimeter=hexagonPerimeter2;whiteSpace=wrap;html=1;fixedSize=1;fillColor=#f8cecc;strokeColor=#b85450;" vertex="1" parent="1">
          <mxGeometry x="930" y="230" width="120" height="60" as="geometry" />
        </mxCell>
        <mxCell id="OG-ENs6HDF6D8M-Unit6-31" value="" style="edgeStyle=orthogonalEdgeStyle;rounded=0;orthogonalLoop=1;jettySize=auto;html=1;" edge="1" parent="1" source="OG-ENs6HDF6D8M-Unit6-19" target="OG-ENs6HDF6D8M-Unit6-30">
          <mxGeometry relative="1" as="geometry" />
        </mxCell>
        <mxCell id="OG-ENs6HDF6D8M-Unit6-19" value="Неявка" style="shape=hexagon;perimeter=hexagonPerimeter2;whiteSpace=wrap;html=1;fixedSize=1;fillColor=#f8cecc;strokeColor=#b85450;" vertex="1" parent="1">
          <mxGeometry x="930" y="320" width="120" height="60" as="geometry" />
        </mxCell>
        <mxCell id="OG-ENs6HDF6D8M-Unit6-39" value="" style="edgeStyle=orthogonalEdgeStyle;rounded=0;orthogonalLoop=1;jettySize=auto;html=1;" edge="1" parent="1" source="OG-ENs6HDF6D8M-Unit6-26" target="OG-ENs6HDF6D8M-Unit6-37">
          <mxGeometry relative="1" as="geometry">
            <mxPoint x="1321" y="170" as="targetPoint" />
          </mxGeometry>
        </mxCell>
        <mxCell id="OG-ENs6HDF6D8M-Unit6-26" value="2.3. Рассказать стажеру о правилах стажировки" style="whiteSpace=wrap;html=1;fillColor=#d5e8d4;strokeColor=#82b366;" vertex="1" parent="1">
          <mxGeometry x="1121" y="140" width="120" height="60" as="geometry" />
        </mxCell>
        <mxCell id="OG-ENs6HDF6D8M-Unit6-46" value="" style="edgeStyle=orthogonalEdgeStyle;rounded=0;orthogonalLoop=1;jettySize=auto;html=1;" edge="1" parent="1" source="OG-ENs6HDF6D8M-Unit6-28" target="OG-ENs6HDF6D8M-Unit6-45">
          <mxGeometry relative="1" as="geometry" />
        </mxCell>
        <mxCell id="OG-ENs6HDF6D8M-Unit6-28" value="2.1. Сообщить об отсутствии задачи в 1C" style="whiteSpace=wrap;html=1;fillColor=#d5e8d4;strokeColor=#82b366;" vertex="1" parent="1">
          <mxGeometry x="1241" y="230" width="120" height="60" as="geometry" />
        </mxCell>
        <mxCell id="OG-ENs6HDF6D8M-Unit6-64" value="" style="edgeStyle=orthogonalEdgeStyle;rounded=0;orthogonalLoop=1;jettySize=auto;html=1;entryX=0;entryY=0.5;entryDx=0;entryDy=0;" edge="1" parent="1" source="OG-ENs6HDF6D8M-Unit6-30" target="OG-ENs6HDF6D8M-Unit6-62">
          <mxGeometry relative="1" as="geometry">
            <mxPoint x="1570" y="350" as="targetPoint" />
          </mxGeometry>
        </mxCell>
        <mxCell id="OG-ENs6HDF6D8M-Unit6-30" value="2.2. Поставить неявку в задаче 1С" style="whiteSpace=wrap;fillColor=#d5e8d4;strokeColor=#82b366;" vertex="1" parent="1">
          <mxGeometry x="1370" y="320" width="120" height="60" as="geometry" />
        </mxCell>
        <mxCell id="OG-ENs6HDF6D8M-Unit6-34" value="" style="endArrow=none;html=1;rounded=0;" edge="1" parent="1">
          <mxGeometry width="50" height="50" relative="1" as="geometry">
            <mxPoint x="370" y="110" as="sourcePoint" />
            <mxPoint x="1300" y="110" as="targetPoint" />
          </mxGeometry>
        </mxCell>
        <mxCell id="OG-ENs6HDF6D8M-Unit6-35" value="" style="endArrow=classic;html=1;rounded=0;entryX=0.5;entryY=0;entryDx=0;entryDy=0;" edge="1" parent="1" target="OG-ENs6HDF6D8M-Unit6-28">
          <mxGeometry width="50" height="50" relative="1" as="geometry">
            <mxPoint x="1300" y="110" as="sourcePoint" />
            <mxPoint x="1000" y="270" as="targetPoint" />
          </mxGeometry>
        </mxCell>
        <mxCell id="OG-ENs6HDF6D8M-Unit6-36" value="" style="endArrow=classic;html=1;rounded=0;entryX=0.5;entryY=0;entryDx=0;entryDy=0;" edge="1" parent="1" target="OG-ENs6HDF6D8M-Unit6-26">
          <mxGeometry width="50" height="50" relative="1" as="geometry">
            <mxPoint x="1181" y="110" as="sourcePoint" />
            <mxPoint x="1000" y="270" as="targetPoint" />
          </mxGeometry>
        </mxCell>
        <mxCell id="OG-ENs6HDF6D8M-Unit6-41" value="" style="edgeStyle=orthogonalEdgeStyle;rounded=0;orthogonalLoop=1;jettySize=auto;html=1;startArrow=none;entryX=0;entryY=0.5;entryDx=0;entryDy=0;" edge="1" parent="1" source="OG-ENs6HDF6D8M-Unit6-42" target="OG-ENs6HDF6D8M-Unit6-40">
          <mxGeometry relative="1" as="geometry">
            <mxPoint x="1950" y="170" as="targetPoint" />
          </mxGeometry>
        </mxCell>
        <mxCell id="OG-ENs6HDF6D8M-Unit6-50" value="" style="edgeStyle=orthogonalEdgeStyle;rounded=0;orthogonalLoop=1;jettySize=auto;html=1;" edge="1" parent="1" source="OG-ENs6HDF6D8M-Unit6-37" target="OG-ENs6HDF6D8M-Unit6-42">
          <mxGeometry relative="1" as="geometry" />
        </mxCell>
        <mxCell id="OG-ENs6HDF6D8M-Unit6-37" value="Сообщение в TG" style="shape=hexagon;perimeter=hexagonPerimeter2;whiteSpace=wrap;html=1;fixedSize=1;fillColor=#f8cecc;strokeColor=#b85450;" vertex="1" parent="1">
          <mxGeometry x="1500" y="140" width="120" height="60" as="geometry" />
        </mxCell>
        <mxCell id="OG-ENs6HDF6D8M-Unit6-90" value="" style="edgeStyle=orthogonalEdgeStyle;rounded=0;orthogonalLoop=1;jettySize=auto;html=1;" edge="1" parent="1" source="OG-ENs6HDF6D8M-Unit6-40" target="OG-ENs6HDF6D8M-Unit6-89">
          <mxGeometry relative="1" as="geometry" />
        </mxCell>
        <mxCell id="OG-ENs6HDF6D8M-Unit6-40" value="3. Проверить прогресс курса в СДО" style="whiteSpace=wrap;html=1;fillColor=#d5e8d4;strokeColor=#82b366;" vertex="1" parent="1">
          <mxGeometry x="2030" y="140" width="120" height="60" as="geometry" />
        </mxCell>
        <mxCell id="OG-ENs6HDF6D8M-Unit6-48" value="" style="edgeStyle=orthogonalEdgeStyle;rounded=0;orthogonalLoop=1;jettySize=auto;html=1;" edge="1" parent="1" source="OG-ENs6HDF6D8M-Unit6-45" target="OG-ENs6HDF6D8M-Unit6-47">
          <mxGeometry relative="1" as="geometry" />
        </mxCell>
        <mxCell id="OG-ENs6HDF6D8M-Unit6-45" value="Сообщение в TG" style="shape=hexagon;perimeter=hexagonPerimeter2;whiteSpace=wrap;html=1;fixedSize=1;fillColor=#f8cecc;strokeColor=#b85450;" vertex="1" parent="1">
          <mxGeometry x="1500" y="230" width="120" height="60" as="geometry" />
        </mxCell>
        <mxCell id="OG-ENs6HDF6D8M-Unit6-54" value="" style="edgeStyle=orthogonalEdgeStyle;rounded=0;orthogonalLoop=1;jettySize=auto;html=1;" edge="1" parent="1" source="OG-ENs6HDF6D8M-Unit6-47" target="OG-ENs6HDF6D8M-Unit6-51">
          <mxGeometry relative="1" as="geometry" />
        </mxCell>
        <mxCell id="OG-ENs6HDF6D8M-Unit6-58" value="" style="edgeStyle=orthogonalEdgeStyle;rounded=0;orthogonalLoop=1;jettySize=auto;html=1;exitX=1;exitY=0.75;exitDx=0;exitDy=0;" edge="1" parent="1" source="OG-ENs6HDF6D8M-Unit6-47">
          <mxGeometry relative="1" as="geometry">
            <mxPoint x="1800" y="450" as="targetPoint" />
            <Array as="points">
              <mxPoint x="1780" y="275" />
              <mxPoint x="1780" y="450" />
            </Array>
          </mxGeometry>
        </mxCell>
        <mxCell id="OG-ENs6HDF6D8M-Unit6-47" value="2.1.2. Назначить кандидата на задачу в 1С" style="whiteSpace=wrap;html=1;fillColor=#d5e8d4;strokeColor=#82b366;" vertex="1" parent="1">
          <mxGeometry x="1654" y="230" width="120" height="60" as="geometry" />
        </mxCell>
        <mxCell id="OG-ENs6HDF6D8M-Unit6-42" value="Х" style="ellipse;whiteSpace=wrap;html=1;" vertex="1" parent="1">
          <mxGeometry x="1960" y="150" width="40" height="40" as="geometry" />
        </mxCell>
        <mxCell id="OG-ENs6HDF6D8M-Unit6-53" value="" style="edgeStyle=orthogonalEdgeStyle;rounded=0;orthogonalLoop=1;jettySize=auto;html=1;entryX=0;entryY=0.75;entryDx=0;entryDy=0;entryPerimeter=0;" edge="1" parent="1" source="OG-ENs6HDF6D8M-Unit6-51" target="OG-ENs6HDF6D8M-Unit6-42">
          <mxGeometry relative="1" as="geometry">
            <mxPoint x="2000" y="260" as="targetPoint" />
          </mxGeometry>
        </mxCell>
        <mxCell id="OG-ENs6HDF6D8M-Unit6-51" value="Задача в 1C для ЛП" style="shape=hexagon;perimeter=hexagonPerimeter2;whiteSpace=wrap;html=1;fixedSize=1;fillColor=#f8cecc;strokeColor=#b85450;" vertex="1" parent="1">
          <mxGeometry x="1800" y="230" width="120" height="60" as="geometry" />
        </mxCell>
        <mxCell id="OG-ENs6HDF6D8M-Unit6-188" value="" style="edgeStyle=orthogonalEdgeStyle;rounded=0;orthogonalLoop=1;jettySize=auto;html=1;entryX=0;entryY=0.5;entryDx=0;entryDy=0;" edge="1" parent="1" source="OG-ENs6HDF6D8M-Unit6-59" target="OG-ENs6HDF6D8M-Unit6-186">
          <mxGeometry relative="1" as="geometry">
            <mxPoint x="2000" y="450" as="targetPoint" />
          </mxGeometry>
        </mxCell>
        <mxCell id="OG-ENs6HDF6D8M-Unit6-59" value="Задача в 1C для СП" style="shape=hexagon;perimeter=hexagonPerimeter2;whiteSpace=wrap;html=1;fixedSize=1;fillColor=#f8cecc;strokeColor=#b85450;" vertex="1" parent="1">
          <mxGeometry x="1800" y="420" width="120" height="60" as="geometry" />
        </mxCell>
        <mxCell id="OG-ENs6HDF6D8M-Unit6-76" value="" style="edgeStyle=orthogonalEdgeStyle;rounded=0;orthogonalLoop=1;jettySize=auto;html=1;entryX=0;entryY=0.5;entryDx=0;entryDy=0;" edge="1" parent="1" source="OG-ENs6HDF6D8M-Unit6-60" target="OG-ENs6HDF6D8M-Unit6-77">
          <mxGeometry relative="1" as="geometry">
            <mxPoint x="2310" y="450" as="targetPoint" />
          </mxGeometry>
        </mxCell>
        <mxCell id="OG-ENs6HDF6D8M-Unit6-60" value="5. Оценить готовность стажера к самостоятельной работе" style="whiteSpace=wrap;html=1;fillColor=#d5e8d4;strokeColor=#82b366;" vertex="1" parent="1">
          <mxGeometry x="2160" y="420" width="120" height="60" as="geometry" />
        </mxCell>
        <mxCell id="OG-ENs6HDF6D8M-Unit6-66" value="" style="edgeStyle=orthogonalEdgeStyle;rounded=0;orthogonalLoop=1;jettySize=auto;html=1;" edge="1" parent="1" source="OG-ENs6HDF6D8M-Unit6-62" target="OG-ENs6HDF6D8M-Unit6-65">
          <mxGeometry relative="1" as="geometry" />
        </mxCell>
        <mxCell id="OG-ENs6HDF6D8M-Unit6-62" value="Неявка в 1C" style="shape=hexagon;perimeter=hexagonPerimeter2;whiteSpace=wrap;html=1;fixedSize=1;fillColor=#f8cecc;strokeColor=#b85450;" vertex="1" parent="1">
          <mxGeometry x="2090" y="320" width="120" height="60" as="geometry" />
        </mxCell>
        <mxCell id="OG-ENs6HDF6D8M-Unit6-133" value="" style="edgeStyle=orthogonalEdgeStyle;rounded=0;orthogonalLoop=1;jettySize=auto;html=1;" edge="1" parent="1" source="OG-ENs6HDF6D8M-Unit6-65" target="OG-ENs6HDF6D8M-Unit6-131">
          <mxGeometry relative="1" as="geometry" />
        </mxCell>
        <mxCell id="OG-ENs6HDF6D8M-Unit6-65" value="6. Выяснить причину неявки&amp;nbsp;" style="whiteSpace=wrap;html=1;fillColor=#d5e8d4;strokeColor=#82b366;" vertex="1" parent="1">
          <mxGeometry x="2280" y="320" width="120" height="60" as="geometry" />
        </mxCell>
        <mxCell id="OG-ENs6HDF6D8M-Unit6-70" value="" style="edgeStyle=orthogonalEdgeStyle;rounded=0;orthogonalLoop=1;jettySize=auto;html=1;" edge="1" parent="1" source="OG-ENs6HDF6D8M-Unit6-67" target="OG-ENs6HDF6D8M-Unit6-69">
          <mxGeometry relative="1" as="geometry" />
        </mxCell>
        <mxCell id="OG-ENs6HDF6D8M-Unit6-67" value="Готовность стажера к обучению" style="shape=hexagon;perimeter=hexagonPerimeter2;whiteSpace=wrap;html=1;fixedSize=1;fillColor=#f8cecc;strokeColor=#b85450;" vertex="1" parent="1">
          <mxGeometry x="2571" y="410" width="120" height="60" as="geometry" />
        </mxCell>
        <mxCell id="OG-ENs6HDF6D8M-Unit6-121" value="" style="edgeStyle=orthogonalEdgeStyle;rounded=0;orthogonalLoop=1;jettySize=auto;html=1;entryX=0;entryY=0.5;entryDx=0;entryDy=0;" edge="1" parent="1" source="OG-ENs6HDF6D8M-Unit6-69" target="OG-ENs6HDF6D8M-Unit6-113">
          <mxGeometry relative="1" as="geometry">
            <mxPoint x="2850" y="440" as="targetPoint" />
          </mxGeometry>
        </mxCell>
        <mxCell id="OG-ENs6HDF6D8M-Unit6-69" value="6.1. Скорректировать дату обучения в 1С" style="whiteSpace=wrap;html=1;fillColor=#d5e8d4;strokeColor=#82b366;" vertex="1" parent="1">
          <mxGeometry x="2710" y="410" width="120" height="60" as="geometry" />
        </mxCell>
        <mxCell id="OG-ENs6HDF6D8M-Unit6-104" value="" style="edgeStyle=orthogonalEdgeStyle;rounded=0;orthogonalLoop=1;jettySize=auto;html=1;entryX=0;entryY=0.75;entryDx=0;entryDy=0;entryPerimeter=0;exitX=1;exitY=0.5;exitDx=0;exitDy=0;" edge="1" parent="1" source="OG-ENs6HDF6D8M-Unit6-73" target="OG-ENs6HDF6D8M-Unit6-99">
          <mxGeometry relative="1" as="geometry">
            <mxPoint x="2630" y="450" as="targetPoint" />
            <Array as="points">
              <mxPoint x="3160" y="550" />
              <mxPoint x="3160" y="250" />
            </Array>
          </mxGeometry>
        </mxCell>
        <mxCell id="OG-ENs6HDF6D8M-Unit6-73" value="Обучение продлено" style="shape=hexagon;perimeter=hexagonPerimeter2;whiteSpace=wrap;html=1;fixedSize=1;fillColor=#f8cecc;strokeColor=#b85450;" vertex="1" parent="1">
          <mxGeometry x="2571" y="520" width="120" height="60" as="geometry" />
        </mxCell>
        <mxCell id="OG-ENs6HDF6D8M-Unit6-148" value="" style="edgeStyle=orthogonalEdgeStyle;rounded=0;orthogonalLoop=1;jettySize=auto;html=1;entryX=0;entryY=0.5;entryDx=0;entryDy=0;" edge="1" parent="1" source="OG-ENs6HDF6D8M-Unit6-74" target="OG-ENs6HDF6D8M-Unit6-144">
          <mxGeometry relative="1" as="geometry">
            <mxPoint x="3772" y="640" as="targetPoint" />
            <Array as="points" />
          </mxGeometry>
        </mxCell>
        <mxCell id="OG-ENs6HDF6D8M-Unit6-74" value="Обучение успешно" style="shape=hexagon;perimeter=hexagonPerimeter2;whiteSpace=wrap;html=1;fixedSize=1;fillColor=#f8cecc;strokeColor=#b85450;" vertex="1" parent="1">
          <mxGeometry x="2571" y="590" width="120" height="60" as="geometry" />
        </mxCell>
        <mxCell id="OG-ENs6HDF6D8M-Unit6-78" value="" style="edgeStyle=orthogonalEdgeStyle;rounded=0;orthogonalLoop=1;jettySize=auto;html=1;" edge="1" parent="1" source="OG-ENs6HDF6D8M-Unit6-77" target="OG-ENs6HDF6D8M-Unit6-73">
          <mxGeometry relative="1" as="geometry">
            <Array as="points">
              <mxPoint x="2510" y="450" />
              <mxPoint x="2510" y="550" />
            </Array>
          </mxGeometry>
        </mxCell>
        <mxCell id="OG-ENs6HDF6D8M-Unit6-80" value="" style="edgeStyle=orthogonalEdgeStyle;rounded=0;orthogonalLoop=1;jettySize=auto;html=1;entryX=0;entryY=0.5;entryDx=0;entryDy=0;" edge="1" parent="1" source="OG-ENs6HDF6D8M-Unit6-77" target="OG-ENs6HDF6D8M-Unit6-74">
          <mxGeometry relative="1" as="geometry">
            <mxPoint x="2380" y="600" as="targetPoint" />
            <Array as="points">
              <mxPoint x="2510" y="450" />
              <mxPoint x="2510" y="620" />
            </Array>
          </mxGeometry>
        </mxCell>
        <mxCell id="OG-ENs6HDF6D8M-Unit6-126" value="" style="edgeStyle=orthogonalEdgeStyle;rounded=0;orthogonalLoop=1;jettySize=auto;html=1;entryX=0;entryY=0.5;entryDx=0;entryDy=0;" edge="1" parent="1" source="OG-ENs6HDF6D8M-Unit6-77" target="OG-ENs6HDF6D8M-Unit6-83">
          <mxGeometry relative="1" as="geometry">
            <mxPoint x="2330" y="600" as="targetPoint" />
            <Array as="points">
              <mxPoint x="2510" y="450" />
              <mxPoint x="2510" y="690" />
            </Array>
          </mxGeometry>
        </mxCell>
        <mxCell id="OG-ENs6HDF6D8M-Unit6-128" value="" style="edgeStyle=orthogonalEdgeStyle;rounded=0;orthogonalLoop=1;jettySize=auto;html=1;entryX=0;entryY=0.5;entryDx=0;entryDy=0;" edge="1" parent="1" source="OG-ENs6HDF6D8M-Unit6-77" target="OG-ENs6HDF6D8M-Unit6-84">
          <mxGeometry relative="1" as="geometry">
            <mxPoint x="2290" y="600" as="targetPoint" />
            <Array as="points">
              <mxPoint x="2510" y="450" />
              <mxPoint x="2510" y="760" />
            </Array>
          </mxGeometry>
        </mxCell>
        <mxCell id="OG-ENs6HDF6D8M-Unit6-77" value="Х" style="ellipse;whiteSpace=wrap;html=1;" vertex="1" parent="1">
          <mxGeometry x="2420" y="430" width="40" height="40" as="geometry" />
        </mxCell>
        <mxCell id="OG-ENs6HDF6D8M-Unit6-150" value="" style="edgeStyle=orthogonalEdgeStyle;rounded=0;orthogonalLoop=1;jettySize=auto;html=1;entryX=0;entryY=0.675;entryDx=0;entryDy=0;entryPerimeter=0;" edge="1" parent="1" source="OG-ENs6HDF6D8M-Unit6-83" target="OG-ENs6HDF6D8M-Unit6-144">
          <mxGeometry relative="1" as="geometry">
            <mxPoint x="3710" y="630" as="targetPoint" />
            <Array as="points">
              <mxPoint x="3700" y="690" />
              <mxPoint x="3700" y="627" />
            </Array>
          </mxGeometry>
        </mxCell>
        <mxCell id="OG-ENs6HDF6D8M-Unit6-83" value="Обучение не успешно" style="shape=hexagon;perimeter=hexagonPerimeter2;whiteSpace=wrap;html=1;fixedSize=1;fillColor=#f8cecc;strokeColor=#b85450;" vertex="1" parent="1">
          <mxGeometry x="2571" y="660" width="120" height="60" as="geometry" />
        </mxCell>
        <mxCell id="OG-ENs6HDF6D8M-Unit6-152" value="" style="edgeStyle=orthogonalEdgeStyle;rounded=0;orthogonalLoop=1;jettySize=auto;html=1;entryX=0;entryY=1;entryDx=0;entryDy=0;" edge="1" parent="1" source="OG-ENs6HDF6D8M-Unit6-84" target="OG-ENs6HDF6D8M-Unit6-144">
          <mxGeometry relative="1" as="geometry">
            <mxPoint x="3801" y="790" as="targetPoint" />
            <Array as="points">
              <mxPoint x="3720" y="760" />
              <mxPoint x="3720" y="634" />
            </Array>
          </mxGeometry>
        </mxCell>
        <mxCell id="OG-ENs6HDF6D8M-Unit6-84" value="Передумал учиться" style="shape=hexagon;perimeter=hexagonPerimeter2;whiteSpace=wrap;html=1;fixedSize=1;fillColor=#f8cecc;strokeColor=#b85450;" vertex="1" parent="1">
          <mxGeometry x="2571" y="730" width="120" height="60" as="geometry" />
        </mxCell>
        <mxCell id="OG-ENs6HDF6D8M-Unit6-95" value="" style="edgeStyle=orthogonalEdgeStyle;rounded=0;orthogonalLoop=1;jettySize=auto;html=1;" edge="1" parent="1" target="OG-ENs6HDF6D8M-Unit6-93">
          <mxGeometry relative="1" as="geometry">
            <mxPoint x="2990" y="170" as="sourcePoint" />
          </mxGeometry>
        </mxCell>
        <mxCell id="OG-ENs6HDF6D8M-Unit6-96" value="" style="edgeStyle=orthogonalEdgeStyle;rounded=0;orthogonalLoop=1;jettySize=auto;html=1;exitX=1;exitY=0.5;exitDx=0;exitDy=0;" edge="1" parent="1" source="OG-ENs6HDF6D8M-Unit6-89" target="OG-ENs6HDF6D8M-Unit6-93">
          <mxGeometry relative="1" as="geometry">
            <mxPoint x="2900" y="170" as="sourcePoint" />
          </mxGeometry>
        </mxCell>
        <mxCell id="OG-ENs6HDF6D8M-Unit6-98" value="" style="edgeStyle=orthogonalEdgeStyle;rounded=0;orthogonalLoop=1;jettySize=auto;html=1;entryX=0;entryY=0.5;entryDx=0;entryDy=0;exitX=1;exitY=0.5;exitDx=0;exitDy=0;" edge="1" parent="1" source="OG-ENs6HDF6D8M-Unit6-89" target="OG-ENs6HDF6D8M-Unit6-94">
          <mxGeometry relative="1" as="geometry">
            <mxPoint x="2990" y="170" as="sourcePoint" />
            <mxPoint x="3030" y="410" as="targetPoint" />
          </mxGeometry>
        </mxCell>
        <mxCell id="OG-ENs6HDF6D8M-Unit6-89" value="Х" style="ellipse;whiteSpace=wrap;html=1;" vertex="1" parent="1">
          <mxGeometry x="2740" y="150" width="40" height="40" as="geometry" />
        </mxCell>
        <mxCell id="OG-ENs6HDF6D8M-Unit6-106" value="" style="edgeStyle=orthogonalEdgeStyle;rounded=0;orthogonalLoop=1;jettySize=auto;html=1;" edge="1" parent="1" source="OG-ENs6HDF6D8M-Unit6-93" target="OG-ENs6HDF6D8M-Unit6-105">
          <mxGeometry relative="1" as="geometry" />
        </mxCell>
        <mxCell id="OG-ENs6HDF6D8M-Unit6-93" value="Незачет в СДО" style="shape=hexagon;perimeter=hexagonPerimeter2;whiteSpace=wrap;html=1;fixedSize=1;fillColor=#f8cecc;strokeColor=#b85450;" vertex="1" parent="1">
          <mxGeometry x="3030" y="140" width="120" height="60" as="geometry" />
        </mxCell>
        <mxCell id="OG-ENs6HDF6D8M-Unit6-100" value="" style="edgeStyle=orthogonalEdgeStyle;rounded=0;orthogonalLoop=1;jettySize=auto;html=1;" edge="1" parent="1" source="OG-ENs6HDF6D8M-Unit6-94" target="OG-ENs6HDF6D8M-Unit6-99">
          <mxGeometry relative="1" as="geometry" />
        </mxCell>
        <mxCell id="OG-ENs6HDF6D8M-Unit6-94" value="Зачет в СДО" style="shape=hexagon;perimeter=hexagonPerimeter2;whiteSpace=wrap;html=1;fixedSize=1;fillColor=#f8cecc;strokeColor=#b85450;" vertex="1" parent="1">
          <mxGeometry x="3030" y="210" width="120" height="60" as="geometry" />
        </mxCell>
        <mxCell id="OG-ENs6HDF6D8M-Unit6-102" value="" style="edgeStyle=orthogonalEdgeStyle;rounded=0;orthogonalLoop=1;jettySize=auto;html=1;" edge="1" parent="1" source="OG-ENs6HDF6D8M-Unit6-99" target="OG-ENs6HDF6D8M-Unit6-101">
          <mxGeometry relative="1" as="geometry" />
        </mxCell>
        <mxCell id="OG-ENs6HDF6D8M-Unit6-99" value="Х" style="ellipse;whiteSpace=wrap;html=1;" vertex="1" parent="1">
          <mxGeometry x="3190" y="220" width="40" height="40" as="geometry" />
        </mxCell>
        <mxCell id="OG-ENs6HDF6D8M-Unit6-192" value="" style="edgeStyle=orthogonalEdgeStyle;rounded=0;orthogonalLoop=1;jettySize=auto;html=1;entryX=0;entryY=0.5;entryDx=0;entryDy=0;" edge="1" parent="1" source="OG-ENs6HDF6D8M-Unit6-101" target="OG-ENs6HDF6D8M-Unit6-190">
          <mxGeometry relative="1" as="geometry">
            <mxPoint x="3460" y="240" as="targetPoint" />
          </mxGeometry>
        </mxCell>
        <mxCell id="OG-ENs6HDF6D8M-Unit6-101" value="4. Провести практическое обучение" style="whiteSpace=wrap;html=1;fillColor=#d5e8d4;strokeColor=#82b366;" vertex="1" parent="1">
          <mxGeometry x="3260" y="210" width="120" height="60" as="geometry" />
        </mxCell>
        <mxCell id="OG-ENs6HDF6D8M-Unit6-110" value="" style="edgeStyle=orthogonalEdgeStyle;rounded=0;orthogonalLoop=1;jettySize=auto;html=1;" edge="1" parent="1" source="OG-ENs6HDF6D8M-Unit6-105" target="OG-ENs6HDF6D8M-Unit6-109">
          <mxGeometry relative="1" as="geometry" />
        </mxCell>
        <mxCell id="OG-ENs6HDF6D8M-Unit6-105" value="3.1. Организовать изучение курса" style="whiteSpace=wrap;html=1;fillColor=#d5e8d4;strokeColor=#82b366;" vertex="1" parent="1">
          <mxGeometry x="3380" y="140" width="120" height="60" as="geometry" />
        </mxCell>
        <mxCell id="OG-ENs6HDF6D8M-Unit6-112" value="" style="edgeStyle=orthogonalEdgeStyle;rounded=0;orthogonalLoop=1;jettySize=auto;html=1;" edge="1" parent="1" source="OG-ENs6HDF6D8M-Unit6-109">
          <mxGeometry relative="1" as="geometry">
            <mxPoint x="229" y="260" as="targetPoint" />
            <Array as="points">
              <mxPoint x="3680" y="170" />
              <mxPoint x="3680" y="840" />
              <mxPoint x="190" y="840" />
              <mxPoint x="190" y="260" />
            </Array>
          </mxGeometry>
        </mxCell>
        <mxCell id="OG-ENs6HDF6D8M-Unit6-109" value="Обучение продлено" style="shape=hexagon;perimeter=hexagonPerimeter2;whiteSpace=wrap;html=1;fixedSize=1;fillColor=#f8cecc;strokeColor=#b85450;" vertex="1" parent="1">
          <mxGeometry x="3530" y="140" width="120" height="60" as="geometry" />
        </mxCell>
        <mxCell id="OG-ENs6HDF6D8M-Unit6-118" value="" style="edgeStyle=orthogonalEdgeStyle;rounded=0;orthogonalLoop=1;jettySize=auto;html=1;exitX=1;exitY=0.5;exitDx=0;exitDy=0;" edge="1" parent="1" source="OG-ENs6HDF6D8M-Unit6-113">
          <mxGeometry relative="1" as="geometry">
            <mxPoint x="230" y="270" as="targetPoint" />
            <Array as="points">
              <mxPoint x="3060" y="440" />
              <mxPoint x="3060" y="830" />
              <mxPoint x="210" y="830" />
              <mxPoint x="210" y="270" />
            </Array>
          </mxGeometry>
        </mxCell>
        <mxCell id="OG-ENs6HDF6D8M-Unit6-113" value="Новая дата в 1С" style="shape=hexagon;perimeter=hexagonPerimeter2;whiteSpace=wrap;html=1;fixedSize=1;fillColor=#f8cecc;strokeColor=#b85450;" vertex="1" parent="1">
          <mxGeometry x="2920" y="410" width="120" height="60" as="geometry" />
        </mxCell>
        <mxCell id="OG-ENs6HDF6D8M-Unit6-136" value="" style="edgeStyle=orthogonalEdgeStyle;rounded=0;orthogonalLoop=1;jettySize=auto;html=1;" edge="1" parent="1" source="OG-ENs6HDF6D8M-Unit6-131" target="OG-ENs6HDF6D8M-Unit6-134">
          <mxGeometry relative="1" as="geometry" />
        </mxCell>
        <mxCell id="OG-ENs6HDF6D8M-Unit6-138" value="" style="edgeStyle=orthogonalEdgeStyle;rounded=0;orthogonalLoop=1;jettySize=auto;html=1;" edge="1" parent="1" source="OG-ENs6HDF6D8M-Unit6-131">
          <mxGeometry relative="1" as="geometry">
            <mxPoint x="2590" y="350" as="targetPoint" />
          </mxGeometry>
        </mxCell>
        <mxCell id="OG-ENs6HDF6D8M-Unit6-140" value="" style="edgeStyle=orthogonalEdgeStyle;rounded=0;orthogonalLoop=1;jettySize=auto;html=1;" edge="1" parent="1" source="OG-ENs6HDF6D8M-Unit6-131">
          <mxGeometry relative="1" as="geometry">
            <mxPoint x="2570" y="440" as="targetPoint" />
            <Array as="points">
              <mxPoint x="2550" y="440" />
            </Array>
          </mxGeometry>
        </mxCell>
        <mxCell id="OG-ENs6HDF6D8M-Unit6-131" value="Х" style="ellipse;whiteSpace=wrap;html=1;" vertex="1" parent="1">
          <mxGeometry x="2470" y="330" width="40" height="40" as="geometry" />
        </mxCell>
        <mxCell id="OG-ENs6HDF6D8M-Unit6-154" value="" style="edgeStyle=orthogonalEdgeStyle;rounded=0;orthogonalLoop=1;jettySize=auto;html=1;entryX=0;entryY=0.25;entryDx=0;entryDy=0;entryPerimeter=0;" edge="1" parent="1" source="OG-ENs6HDF6D8M-Unit6-134" target="OG-ENs6HDF6D8M-Unit6-144">
          <mxGeometry relative="1" as="geometry">
            <mxPoint x="2771" y="350" as="targetPoint" />
            <Array as="points">
              <mxPoint x="3700" y="350" />
              <mxPoint x="3700" y="610" />
            </Array>
          </mxGeometry>
        </mxCell>
        <mxCell id="OG-ENs6HDF6D8M-Unit6-134" value="Не готовность стажера к обучению" style="shape=hexagon;perimeter=hexagonPerimeter2;whiteSpace=wrap;html=1;fixedSize=1;fillColor=#f8cecc;strokeColor=#b85450;" vertex="1" parent="1">
          <mxGeometry x="2571" y="320" width="120" height="60" as="geometry" />
        </mxCell>
        <mxCell id="OG-ENs6HDF6D8M-Unit6-156" value="" style="edgeStyle=orthogonalEdgeStyle;rounded=0;orthogonalLoop=1;jettySize=auto;html=1;" edge="1" parent="1" source="OG-ENs6HDF6D8M-Unit6-144" target="OG-ENs6HDF6D8M-Unit6-155">
          <mxGeometry relative="1" as="geometry" />
        </mxCell>
        <mxCell id="OG-ENs6HDF6D8M-Unit6-144" value="Х" style="ellipse;whiteSpace=wrap;html=1;" vertex="1" parent="1">
          <mxGeometry x="3750" y="600" width="40" height="40" as="geometry" />
        </mxCell>
        <mxCell id="OG-ENs6HDF6D8M-Unit6-155" value="С-3.1." style="whiteSpace=wrap;html=1;fillColor=#d5e8d4;strokeColor=#82b366;" vertex="1" parent="1">
          <mxGeometry x="3820" y="590" width="120" height="60" as="geometry" />
        </mxCell>
        <mxCell id="OG-ENs6HDF6D8M-Unit6-159" value="" style="edgeStyle=orthogonalEdgeStyle;rounded=0;orthogonalLoop=1;jettySize=auto;html=1;" edge="1" parent="1" source="OG-ENs6HDF6D8M-Unit6-157">
          <mxGeometry relative="1" as="geometry">
            <mxPoint x="2220" y="420" as="targetPoint" />
          </mxGeometry>
        </mxCell>
        <mxCell id="OG-ENs6HDF6D8M-Unit6-157" value="Критерии качества обучения" style="shape=document;whiteSpace=wrap;html=1;boundedLbl=1;fillColor=#f5f5f5;fontColor=#333333;strokeColor=#666666;" vertex="1" parent="1">
          <mxGeometry x="2160" y="30" width="120" height="60" as="geometry" />
        </mxCell>
        <mxCell id="OG-ENs6HDF6D8M-Unit6-162" value="" style="edgeStyle=orthogonalEdgeStyle;rounded=0;orthogonalLoop=1;jettySize=auto;html=1;entryX=0.5;entryY=0;entryDx=0;entryDy=0;" edge="1" parent="1" source="OG-ENs6HDF6D8M-Unit6-160" target="OG-ENs6HDF6D8M-Unit6-101">
          <mxGeometry relative="1" as="geometry">
            <mxPoint x="3320" y="170" as="targetPoint" />
          </mxGeometry>
        </mxCell>
        <mxCell id="OG-ENs6HDF6D8M-Unit6-160" value="Регламент и программа обучения" style="shape=document;whiteSpace=wrap;html=1;boundedLbl=1;fillColor=#f5f5f5;fontColor=#333333;strokeColor=#666666;" vertex="1" parent="1">
          <mxGeometry x="3260" y="30" width="120" height="60" as="geometry" />
        </mxCell>
        <mxCell id="OG-ENs6HDF6D8M-Unit6-163" value="Наставник" style="ellipse;whiteSpace=wrap;html=1;fillColor=#fff2cc;strokeColor=#d6b656;" vertex="1" parent="1">
          <mxGeometry x="1340" y="910" width="120" height="80" as="geometry" />
        </mxCell>
        <mxCell id="OG-ENs6HDF6D8M-Unit6-170" value="" style="edgeStyle=orthogonalEdgeStyle;rounded=0;orthogonalLoop=1;jettySize=auto;html=1;entryX=0.5;entryY=1;entryDx=0;entryDy=0;" edge="1" parent="1" source="OG-ENs6HDF6D8M-Unit6-164" target="OG-ENs6HDF6D8M-Unit6-47">
          <mxGeometry relative="1" as="geometry">
            <mxPoint x="1430" y="490" as="targetPoint" />
            <Array as="points">
              <mxPoint x="1714" y="540" />
              <mxPoint x="1714" y="540" />
            </Array>
          </mxGeometry>
        </mxCell>
        <mxCell id="OG-ENs6HDF6D8M-Unit6-172" value="" style="edgeStyle=orthogonalEdgeStyle;rounded=0;orthogonalLoop=1;jettySize=auto;html=1;entryX=0.25;entryY=1;entryDx=0;entryDy=0;" edge="1" parent="1" source="OG-ENs6HDF6D8M-Unit6-164" target="OG-ENs6HDF6D8M-Unit6-65">
          <mxGeometry relative="1" as="geometry">
            <mxPoint x="1830" y="585" as="targetPoint" />
            <Array as="points">
              <mxPoint x="1714" y="540" />
              <mxPoint x="2310" y="540" />
            </Array>
          </mxGeometry>
        </mxCell>
        <mxCell id="OG-ENs6HDF6D8M-Unit6-164" value="Менеджер по подбору" style="ellipse;whiteSpace=wrap;html=1;fillColor=#fff2cc;strokeColor=#d6b656;" vertex="1" parent="1">
          <mxGeometry x="1654" y="580" width="120" height="80" as="geometry" />
        </mxCell>
        <mxCell id="OG-ENs6HDF6D8M-Unit6-168" value="" style="edgeStyle=orthogonalEdgeStyle;rounded=0;orthogonalLoop=1;jettySize=auto;html=1;entryX=0.808;entryY=1.05;entryDx=0;entryDy=0;entryPerimeter=0;" edge="1" parent="1" source="OG-ENs6HDF6D8M-Unit6-165" target="OG-ENs6HDF6D8M-Unit6-65">
          <mxGeometry relative="1" as="geometry">
            <mxPoint x="2400" y="490" as="targetPoint" />
            <Array as="points">
              <mxPoint x="2377" y="530" />
              <mxPoint x="2377" y="530" />
            </Array>
          </mxGeometry>
        </mxCell>
        <mxCell id="OG-ENs6HDF6D8M-Unit6-165" value="Менеджер по обучению" style="ellipse;whiteSpace=wrap;html=1;fillColor=#fff2cc;strokeColor=#d6b656;" vertex="1" parent="1">
          <mxGeometry x="2320" y="580" width="120" height="80" as="geometry" />
        </mxCell>
        <mxCell id="OG-ENs6HDF6D8M-Unit6-173" value="" style="endArrow=none;html=1;rounded=0;" edge="1" parent="1">
          <mxGeometry width="50" height="50" relative="1" as="geometry">
            <mxPoint x="380" y="880" as="sourcePoint" />
            <mxPoint x="3440" y="880" as="targetPoint" />
          </mxGeometry>
        </mxCell>
        <mxCell id="OG-ENs6HDF6D8M-Unit6-174" value="" style="endArrow=classic;html=1;rounded=0;entryX=0.5;entryY=1;entryDx=0;entryDy=0;" edge="1" parent="1" target="OG-ENs6HDF6D8M-Unit6-105">
          <mxGeometry width="50" height="50" relative="1" as="geometry">
            <mxPoint x="3440" y="880" as="sourcePoint" />
            <mxPoint x="3530" y="510" as="targetPoint" />
          </mxGeometry>
        </mxCell>
        <mxCell id="OG-ENs6HDF6D8M-Unit6-175" value="" style="endArrow=classic;html=1;rounded=0;entryX=0.5;entryY=1;entryDx=0;entryDy=0;" edge="1" parent="1" target="OG-ENs6HDF6D8M-Unit6-101">
          <mxGeometry width="50" height="50" relative="1" as="geometry">
            <mxPoint x="3320" y="880" as="sourcePoint" />
            <mxPoint x="3430" y="530" as="targetPoint" />
          </mxGeometry>
        </mxCell>
        <mxCell id="OG-ENs6HDF6D8M-Unit6-177" value="" style="endArrow=classic;html=1;rounded=0;entryX=0.417;entryY=1.083;entryDx=0;entryDy=0;entryPerimeter=0;" edge="1" parent="1" target="OG-ENs6HDF6D8M-Unit6-60">
          <mxGeometry width="50" height="50" relative="1" as="geometry">
            <mxPoint x="2210" y="880" as="sourcePoint" />
            <mxPoint x="2770" y="520" as="targetPoint" />
          </mxGeometry>
        </mxCell>
        <mxCell id="OG-ENs6HDF6D8M-Unit6-178" value="" style="endArrow=classic;html=1;rounded=0;entryX=0.5;entryY=1;entryDx=0;entryDy=0;" edge="1" parent="1" target="OG-ENs6HDF6D8M-Unit6-69">
          <mxGeometry width="50" height="50" relative="1" as="geometry">
            <mxPoint x="2770" y="880" as="sourcePoint" />
            <mxPoint x="2770" y="520" as="targetPoint" />
          </mxGeometry>
        </mxCell>
        <mxCell id="OG-ENs6HDF6D8M-Unit6-179" value="" style="endArrow=classic;html=1;rounded=0;entryX=0.083;entryY=1.05;entryDx=0;entryDy=0;entryPerimeter=0;" edge="1" parent="1" target="OG-ENs6HDF6D8M-Unit6-40">
          <mxGeometry width="50" height="50" relative="1" as="geometry">
            <mxPoint x="2040" y="880" as="sourcePoint" />
            <mxPoint x="2090" y="500" as="targetPoint" />
          </mxGeometry>
        </mxCell>
        <mxCell id="OG-ENs6HDF6D8M-Unit6-180" value="" style="endArrow=classic;html=1;rounded=0;" edge="1" parent="1">
          <mxGeometry width="50" height="50" relative="1" as="geometry">
            <mxPoint x="1440" y="880" as="sourcePoint" />
            <mxPoint x="1440" y="380" as="targetPoint" />
          </mxGeometry>
        </mxCell>
        <mxCell id="OG-ENs6HDF6D8M-Unit6-181" value="" style="endArrow=classic;html=1;rounded=0;entryX=0.408;entryY=1;entryDx=0;entryDy=0;entryPerimeter=0;" edge="1" parent="1" target="OG-ENs6HDF6D8M-Unit6-28">
          <mxGeometry width="50" height="50" relative="1" as="geometry">
            <mxPoint x="1290" y="880" as="sourcePoint" />
            <mxPoint x="1390" y="520" as="targetPoint" />
          </mxGeometry>
        </mxCell>
        <mxCell id="OG-ENs6HDF6D8M-Unit6-182" value="" style="endArrow=classic;html=1;rounded=0;entryX=0.325;entryY=1.05;entryDx=0;entryDy=0;entryPerimeter=0;" edge="1" parent="1" target="OG-ENs6HDF6D8M-Unit6-26">
          <mxGeometry width="50" height="50" relative="1" as="geometry">
            <mxPoint x="1160" y="880" as="sourcePoint" />
            <mxPoint x="1390" y="520" as="targetPoint" />
          </mxGeometry>
        </mxCell>
        <mxCell id="OG-ENs6HDF6D8M-Unit6-183" value="" style="endArrow=classic;html=1;rounded=0;entryX=0.567;entryY=1.1;entryDx=0;entryDy=0;entryPerimeter=0;" edge="1" parent="1" target="OG-ENs6HDF6D8M-Unit6-4">
          <mxGeometry width="50" height="50" relative="1" as="geometry">
            <mxPoint x="380" y="880" as="sourcePoint" />
            <mxPoint x="740" y="520" as="targetPoint" />
          </mxGeometry>
        </mxCell>
        <mxCell id="OG-ENs6HDF6D8M-Unit6-184" value="" style="endArrow=classic;html=1;rounded=0;" edge="1" parent="1">
          <mxGeometry width="50" height="50" relative="1" as="geometry">
            <mxPoint x="700" y="880" as="sourcePoint" />
            <mxPoint x="700" y="290" as="targetPoint" />
          </mxGeometry>
        </mxCell>
        <mxCell id="OG-ENs6HDF6D8M-Unit6-185" value="" style="endArrow=none;html=1;rounded=0;exitX=0.5;exitY=0;exitDx=0;exitDy=0;" edge="1" parent="1" source="OG-ENs6HDF6D8M-Unit6-163">
          <mxGeometry width="50" height="50" relative="1" as="geometry">
            <mxPoint x="1560" y="770" as="sourcePoint" />
            <mxPoint x="1400" y="880" as="targetPoint" />
          </mxGeometry>
        </mxCell>
        <mxCell id="OG-ENs6HDF6D8M-Unit6-189" value="" style="edgeStyle=orthogonalEdgeStyle;rounded=0;orthogonalLoop=1;jettySize=auto;html=1;" edge="1" parent="1" source="OG-ENs6HDF6D8M-Unit6-186" target="OG-ENs6HDF6D8M-Unit6-60">
          <mxGeometry relative="1" as="geometry" />
        </mxCell>
        <mxCell id="OG-ENs6HDF6D8M-Unit6-186" value="Х" style="ellipse;whiteSpace=wrap;html=1;" vertex="1" parent="1">
          <mxGeometry x="2070" y="430" width="40" height="40" as="geometry" />
        </mxCell>
        <mxCell id="OG-ENs6HDF6D8M-Unit6-195" value="" style="edgeStyle=orthogonalEdgeStyle;rounded=0;orthogonalLoop=1;jettySize=auto;html=1;entryX=0;entryY=1;entryDx=0;entryDy=0;" edge="1" parent="1" source="OG-ENs6HDF6D8M-Unit6-190" target="OG-ENs6HDF6D8M-Unit6-186">
          <mxGeometry relative="1" as="geometry">
            <mxPoint x="2440" y="800" as="targetPoint" />
            <Array as="points">
              <mxPoint x="3660" y="240" />
              <mxPoint x="3660" y="810" />
              <mxPoint x="2050" y="810" />
              <mxPoint x="2050" y="464" />
            </Array>
          </mxGeometry>
        </mxCell>
        <mxCell id="OG-ENs6HDF6D8M-Unit6-190" value="Обучение проведено" style="shape=hexagon;perimeter=hexagonPerimeter2;whiteSpace=wrap;html=1;fixedSize=1;fillColor=#f8cecc;strokeColor=#b85450;" vertex="1" parent="1">
          <mxGeometry x="3530" y="210" width="120" height="60" as="geometry" />
        </mxCell>
      </root>
    </mxGraphModel>
  </diagram>
</mxfile>
